<?xml version="1.0" encoding="utf-8"?>
<!-- Generator: Adobe Illustrator 27.5.0, SVG Export Plug-In . SVG Version: 6.00 Build 0)  -->
<svg version="1.1" xmlns="http://www.w3.org/2000/svg" xmlns:xlink="http://www.w3.org/1999/xlink" x="0px" y="0px"
	 viewBox="0 0 3710 3710" style="enable-background:new 0 0 3710 3710;" xml:space="preserve">
<g id="Background">
	<g>
		<g>
			<rect style="fill:#FFFFFF;" width="3710" height="3710"/>
		</g>
	</g>
</g>
<g id="Illustration">
	<g>
		<linearGradient id="SVGID_1_" gradientUnits="userSpaceOnUse" x1="3549.1753" y1="4004.7969" x2="1119.9829" y2="987.8922">
			<stop  offset="0" style="stop-color:#DAE3FE"/>
			<stop  offset="1" style="stop-color:#E9EFFD"/>
		</linearGradient>
		<path style="fill:url(#SVGID_1_);" d="M2880.889,2815.039c-55.798,58.741-108.593,96.623-150.305,126.552
			c-490.322,351.811-1070.502,249.26-1193.807,224.216c-182.082-36.982-534.043-108.467-788.505-407.709
			C363.293,2305.37,423.24,1592.11,721.856,1121.278c54.621-86.123,343.148-564.128,929.577-640.785
			c354.901-46.392,768.601,47.175,1068.191,298.172C3348.492,1305.531,3303.723,2369.893,2880.889,2815.039z"/>
		<g>
			<g>
				<path style="fill:#91B3FA;" d="M1336.642,2184.369c0,0,8.856-372.328-162.635-471.979
					c-171.49-99.652-497.554-161.954-509.775-696.581c-7.156-312.995-14.9-449.841-20.091-509.512
					c-2.025-23.277,18.66-42.065,41.62-37.74c162.416,30.596,690.033,156.533,800.653,516.656
					C1617.553,1412.143,1336.642,2184.369,1336.642,2184.369z"/>
				<path style="opacity:0.28;fill:#FFFFFF;" d="M811.368,617.307c178.284,159.004,384.436,440.408,494.317,721.813
					c14.105,46.377,55.362,145.003,73.278,320.236c16.002,146.147,8.047,300.58-11.357,402.807
					c-1.227,6.463-7.46,10.708-13.923,9.48c-11.113-2.108-9.635-14.06-9.535-13.684c22.16-174.657,12.962-392.048-37.815-588.197
					c-64.872-240.848-209.562-474.36-359.219-672.41l-15.401-19.502C815.766,628.946,791.356,627.849,802.196,617.469
					C804.756,615.017,808.763,614.995,811.368,617.307z"/>
			</g>
			<g>
				<path style="fill:#BDD0FB;" d="M1612.233,2900.22c23.202,11.377-219.653-294.015-295.728-773.655
					c-35.848-226.019-36.316-509.202-165.067-618.331c-107.155-90.824-471.789-33.484-591.097-11.693
					c-14.908,2.723-19.927,21.555-8.322,31.302c57.215,48.051,179.608,161.39,211.498,275.615
					c42.034,150.557,185.173,246.32,313.317,272.237c128.145,25.917,199.429,51.067,261.858,256
					C1401.121,2536.626,1546.307,2867.893,1612.233,2900.22z"/>
				<path style="opacity:0.28;fill:#FFFFFF;" d="M728.142,1560.154c152.219,6.375,315.614,75.812,398.531,206.062l7.826,12.429
					c18.076,29.143,120.517,236.316,177.413,408.051c0.708,2.141-0.452,4.452-2.593,5.161c-3.637,1.204-5.458-2.798-5.111-2.444
					c-39.64-97.018-96.574-220.021-141.918-312.003c-48.627-100.372-82.658-168.346-193.575-233.456
					c-123.454-70.12-241.397-77.339-241.043-77.266c-1.8-0.184-3.111-1.792-2.927-3.592
					C724.922,1561.364,726.427,1560.086,728.142,1560.154z"/>
			</g>
		</g>
		<g>
			
				<linearGradient id="SVGID_00000031175587852880161930000011830360752577978769_" gradientUnits="userSpaceOnUse" x1="1412.8434" y1="3227.9866" x2="2753.4785" y2="918.3738">
				<stop  offset="0" style="stop-color:#09005D"/>
				<stop  offset="1" style="stop-color:#1A0F91"/>
			</linearGradient>
			<path style="fill:url(#SVGID_00000031175587852880161930000011830360752577978769_);" d="M1183.172,967.177
				c0-94.422,76.544-170.966,170.966-170.966h1453.903c80.211,0,146.351,62.858,150.429,142.966l107.319,2107.888
				c3.192,62.687-46.155,115.563-108.912,116.704l-1666.357,30.285c-58.969,1.072-107.349-46.437-107.349-105.415V967.177z"/>
			<path style="fill:#91B3FA;" d="M1534.063,3158.219h-0.052l-186.456-2.41c-62.347-0.809-113.069-52.191-113.069-114.54v-281.513
				c0-2.2,1.782-3.98,3.98-3.98c2.198,0,3.981,1.78,3.981,3.98v281.513c0,58.015,47.196,105.825,105.211,106.579l186.454,2.41
				c2.198,0.027,3.957,1.835,3.93,4.031C1538.013,3156.47,1536.236,3158.219,1534.063,3158.219z"/>
			<path style="fill:#91B3FA;" d="M1238.467,2676.536c-2.198,0-3.98-1.781-3.98-3.981v-45.591c0-2.2,1.782-3.981,3.98-3.981
				c2.198,0,3.981,1.781,3.981,3.981v45.591C1242.447,2674.756,1240.665,2676.536,1238.467,2676.536z"/>
			<g>
				
					<linearGradient id="SVGID_00000041271591069617599390000011706680341915664533_" gradientUnits="userSpaceOnUse" x1="1302.283" y1="1942.5383" x2="2966.4321" y2="1942.5383">
					<stop  offset="0" style="stop-color:#4F52FF"/>
					<stop  offset="1" style="stop-color:#4042E2"/>
				</linearGradient>
				<path style="fill:url(#SVGID_00000041271591069617599390000011706680341915664533_);" d="M1302.284,828.656
					c-0.178-30.209,26.39-53.59,56.326-49.531c198.544,26.924,881.283,110.197,1445.764,66.865
					c25.743-1.976,48.083,17.528,49.453,43.31l112.529,2117.284c1.543,29.031-20.625,53.857-49.647,55.575
					c-237.41,14.05-1215.139,68.362-1563.881,31.834c-21.225-2.224-37.337-20.093-37.462-41.434L1302.284,828.656z"/>
				<path style="fill:#BDD0FB;" d="M1325.67,881.714c-0.171-29.072,25.396-51.573,54.205-47.666
					c191.067,25.91,848.098,106.047,1391.324,64.347c24.773-1.902,46.272,16.868,47.591,41.679l108.292,2037.556
					c1.485,27.938-19.849,51.829-47.778,53.482c-228.47,13.521-1169.383,65.787-1504.992,30.635
					c-20.426-2.139-35.931-19.336-36.051-39.874L1325.67,881.714z"/>
				<g style="opacity:0.6;">
					<path style="fill:#FFFFFF;" d="M2711.398,1076.832c2.491,0,4.47-2.037,4.397-4.527l-0.592-20.254
						c-0.073-2.49-2.17-4.563-4.661-4.608l-549.375-9.79c-2.49-0.044-3.851,1.842-3.024,4.191l10.818,30.716
						c0.827,2.35,3.542,4.272,6.034,4.272H2711.398z"/>
				</g>
				<g style="opacity:0.6;">
					<path style="fill:#FFFFFF;" d="M2161.168,1119.088c-2.49-0.044-3.851,1.842-3.024,4.191l10.818,30.716
						c0.827,2.35,3.542,4.272,6.034,4.272h536.402c2.491,0,4.47-2.037,4.397-4.527l-0.592-20.254
						c-0.073-2.49-2.17-4.563-4.661-4.608L2161.168,1119.088z"/>
				</g>
				<g style="opacity:0.6;">
					<path style="fill:#FFFFFF;" d="M2161.168,1201.708c-2.49-0.044-3.851,1.842-3.024,4.191l10.818,30.717
						c0.827,2.349,3.542,4.272,6.034,4.272h536.402c2.491,0,4.47-2.037,4.397-4.527l-0.592-20.254
						c-0.073-2.49-2.17-4.563-4.661-4.608L2161.168,1201.708z"/>
				</g>
				<g style="opacity:0.6;">
					<path style="fill:#FFFFFF;" d="M2762.331,1639.321c2.491,0,4.395-2.034,4.231-4.519l-1.338-20.27
						c-0.164-2.486-2.337-4.535-4.827-4.555l-1253.463-9.88c-2.491-0.02-3.259,1.559-1.708,3.507l25.618,32.174
						c1.552,1.949,4.859,3.543,7.35,3.543H2762.331z"/>
				</g>
				<g style="opacity:0.6;">
					<path style="fill:#FFFFFF;" d="M1506.932,1728.639c-2.491-0.02-3.259,1.559-1.708,3.508l25.618,32.174
						c1.552,1.949,4.859,3.543,7.35,3.543h1224.137c2.491,0,4.395-2.034,4.231-4.519l-1.338-20.27
						c-0.164-2.486-2.337-4.535-4.827-4.555L1506.932,1728.639z"/>
				</g>
				<g style="opacity:0.6;">
					<path style="fill:#FFFFFF;" d="M1512.152,1889.855c-2.491-0.02-3.26,1.559-1.708,3.507l25.618,32.174
						c1.552,1.949,4.859,3.543,7.35,3.543H2767.55c2.491,0,4.395-2.034,4.231-4.519l-1.339-20.27
						c-0.164-2.486-2.336-4.535-4.827-4.555L1512.152,1889.855z"/>
				</g>
				<g>
					<path style="fill:#FFFFFF;" d="M1672.426,2236.972c-0.093,0-0.189,0-0.284,0l-103.679-0.995
						c-14.813-0.144-27.04-10.337-28.444-23.705l-9.114-86.99c-0.535-5.108,1.052-10.154,4.464-14.216
						c3.821-4.544,9.603-7.398,15.864-7.829l0,0c8.734-0.594,21.036-1.644,34.058-2.752c27.422-2.336,61.55-5.24,80.752-5.481
						c13.932-0.07,25.75,8.175,29.033,20.307c5.401,19.969,4.927,57.77,3.899,98.039
						C1698.644,2226.429,1686.76,2236.972,1672.426,2236.972z M1551.779,2111.182c-4.117,0.28-7.875,2.107-10.313,5.007
						c-2.012,2.391-2.949,5.325-2.641,8.26l9.114,86.99c0.979,9.345,9.837,16.471,20.603,16.575l103.679,0.995
						c0.068,0,0.138,0,0.208,0c10.047,0,18.366-7.079,18.591-15.864c1.011-39.658,1.495-76.821-3.627-95.76
						c-2.296-8.486-11.125-14.391-21.246-14.422c-18.916,0.237-52.883,3.129-80.176,5.454
						C1572.912,2109.53,1560.578,2110.579,1551.779,2111.182L1551.779,2111.182z"/>
					<path style="opacity:0.6;fill:#FFFFFF;" d="M1562.932,2120.159c21.781-1.489,69.12-6.295,91.571-6.574
						c9.513-0.119,17.857,5.629,20.088,13.878c4.333,16.022,3.759,47.957,3.007,77.433c-0.225,8.827-8.333,15.874-18.233,15.779
						l-82.853-0.796c-10.189-0.098-18.648-7.045-19.596-16.093l-7.284-69.516
						C1548.879,2127.079,1554.859,2120.711,1562.932,2120.159z"/>
					<g style="opacity:0.6;">
						<path style="fill:#FFFFFF;" d="M1763.491,2179.21c3.002,11.382,13.341,19.278,25.112,19.178l959.289-8.179
							c10.852-0.092,19.533-9.042,19.296-19.891c-0.231-10.548-8.823-18.993-19.373-19.041l-959.314-4.375
							C1771.567,2146.823,1759.172,2162.836,1763.491,2179.21z"/>
					</g>
					<path style="fill:#FFFFFF;" d="M1672.426,2459.184c-0.093,0-0.189,0-0.284,0l-103.679-0.995
						c-14.813-0.144-27.04-10.336-28.444-23.705l-9.114-86.991c-0.535-5.108,1.052-10.154,4.464-14.216
						c3.821-4.544,9.603-7.397,15.864-7.829l0,0c8.734-0.595,21.036-1.645,34.058-2.753c27.422-2.336,61.55-5.24,80.752-5.481
						c0.14,0,0.28-0.004,0.418-0.004c13.635,0,25.365,8.303,28.615,20.311c5.401,19.969,4.927,57.77,3.899,98.039
						C1698.644,2448.641,1686.76,2459.184,1672.426,2459.184z M1551.779,2333.393c-4.117,0.28-7.875,2.107-10.313,5.007
						c-2.012,2.39-2.949,5.326-2.641,8.26l9.114,86.99c0.979,9.345,9.837,16.471,20.603,16.576l103.679,0.995
						c0.068,0,0.138,0,0.208,0c10.047,0,18.366-7.079,18.591-15.864c1.011-39.659,1.495-76.822-3.627-95.761
						c-2.297-8.482-11.252-14.581-21.248-14.422c-18.914,0.237-52.881,3.129-80.174,5.454
						C1572.912,2331.741,1560.578,2332.791,1551.779,2333.393L1551.779,2333.393z"/>
					<path style="opacity:0.6;fill:#FFFFFF;" d="M1562.932,2342.372c21.781-1.489,69.12-6.295,91.571-6.575
						c9.513-0.118,17.857,5.629,20.088,13.878c4.333,16.022,3.759,47.958,3.007,77.433c-0.225,8.828-8.333,15.874-18.233,15.779
						l-82.853-0.796c-10.189-0.098-18.648-7.044-19.596-16.093l-7.284-69.516
						C1548.879,2349.292,1554.859,2342.923,1562.932,2342.372z"/>
					<g style="opacity:0.6;">
						<path style="fill:#FFFFFF;" d="M1763.491,2401.422c3.002,11.382,13.341,19.278,25.112,19.177l959.289-8.179
							c10.852-0.093,19.533-9.042,19.296-19.891c-0.231-10.549-8.823-18.992-19.373-19.041l-959.314-4.376
							C1771.567,2369.035,1759.172,2385.048,1763.491,2401.422z"/>
					</g>
					<path style="fill:#FFFFFF;" d="M1672.426,2681.395c-0.093,0-0.189,0-0.284,0l-103.679-0.995
						c-14.813-0.14-27.04-10.329-28.444-23.701l-9.114-86.99c-0.535-5.108,1.052-10.158,4.466-14.22
						c3.822-4.544,9.602-7.398,15.863-7.829l0,0c8.734-0.595,21.036-1.644,34.058-2.752c27.422-2.336,61.55-5.24,80.752-5.481
						c0.14,0,0.28-0.004,0.418-0.004c13.635,0,25.365,8.303,28.615,20.312c5.401,19.969,4.927,57.77,3.899,98.039
						C1698.644,2670.853,1686.76,2681.395,1672.426,2681.395z M1551.779,2555.605c-4.117,0.28-7.875,2.107-10.313,5.007
						c-2.012,2.391-2.949,5.326-2.641,8.265l9.114,86.99c0.979,9.345,9.837,16.471,20.601,16.572l103.681,0.995
						c0.068,0,0.138,0,0.208,0c10.047,0,18.366-7.079,18.591-15.864c1.011-39.658,1.495-76.822-3.627-95.76
						c-2.297-8.482-11.252-14.613-21.248-14.422c-18.914,0.237-52.881,3.129-80.174,5.454
						C1572.912,2553.953,1560.578,2555.002,1551.779,2555.605L1551.779,2555.605z"/>
					<path style="opacity:0.6;fill:#FFFFFF;" d="M1562.932,2564.583c21.781-1.489,69.12-6.295,91.571-6.575
						c9.513-0.118,17.857,5.629,20.088,13.878c4.333,16.022,3.759,47.958,3.007,77.433c-0.225,8.828-8.333,15.874-18.233,15.779
						l-82.853-0.796c-10.189-0.098-18.648-7.045-19.596-16.093l-7.284-69.517
						C1548.879,2571.503,1554.859,2565.135,1562.932,2564.583z"/>
					<g style="opacity:0.6;">
						<path style="fill:#FFFFFF;" d="M1763.491,2623.633c3.002,11.382,13.341,19.278,25.112,19.178l959.289-8.179
							c10.852-0.093,19.533-9.041,19.296-19.891c-0.231-10.548-8.823-18.992-19.373-19.041l-959.314-4.375
							C1771.567,2591.247,1759.172,2607.259,1763.491,2623.633z"/>
					</g>
					<path style="fill:#FFFFFF;" d="M1672.426,2903.607c-0.093,0-0.189,0-0.284,0l-103.679-0.995
						c-14.813-0.14-27.04-10.329-28.444-23.701l-9.114-86.991c-0.535-5.107,1.052-10.157,4.466-14.22
						c3.822-4.544,9.602-7.398,15.863-7.829l0,0c8.734-0.595,21.036-1.644,34.058-2.752c27.422-2.336,61.55-5.24,80.752-5.481
						c0.14,0,0.28-0.004,0.418-0.004c13.635,0,25.365,8.303,28.615,20.311c5.401,19.969,4.927,57.77,3.899,98.039
						C1698.644,2893.064,1686.76,2903.607,1672.426,2903.607z M1551.779,2777.816c-4.117,0.28-7.875,2.107-10.313,5.007
						c-2.012,2.39-2.949,5.325-2.641,8.264l9.114,86.991c0.979,9.345,9.837,16.471,20.601,16.572l103.681,0.995
						c0.068,0,0.138,0,0.208,0c10.047,0,18.366-7.079,18.591-15.864c1.011-39.658,1.495-76.821-3.627-95.76
						c-2.297-8.482-11.252-14.64-21.248-14.422c-18.914,0.237-52.881,3.129-80.174,5.454
						C1572.912,2776.164,1560.578,2777.214,1551.779,2777.816L1551.779,2777.816z"/>
					<path style="opacity:0.6;fill:#FFFFFF;" d="M1562.932,2786.795c21.781-1.489,69.12-6.295,91.571-6.575
						c9.513-0.118,17.857,5.629,20.088,13.878c4.333,16.022,3.759,47.958,3.007,77.433c-0.225,8.828-8.333,15.875-18.233,15.779
						l-82.853-0.796c-10.189-0.098-18.648-7.045-19.596-16.093l-7.284-69.516
						C1548.879,2793.715,1554.859,2787.347,1562.932,2786.795z"/>
					<g style="opacity:0.6;">
						<path style="fill:#FFFFFF;" d="M1763.491,2845.845L1763.491,2845.845c3.002,11.382,13.341,19.278,25.112,19.177l959.289-8.179
							c10.852-0.093,19.533-9.042,19.296-19.892c-0.231-10.548-8.823-18.992-19.373-19.041l-959.314-4.375
							C1771.567,2813.459,1759.172,2829.471,1763.491,2845.845z"/>
					</g>
				</g>
			</g>
			
				<linearGradient id="SVGID_00000009576965843221784580000016471448328659905193_" gradientUnits="userSpaceOnUse" x1="2333.4729" y1="291.7911" x2="1664.7288" y2="1171.5081">
				<stop  offset="0" style="stop-color:#09005D"/>
				<stop  offset="1" style="stop-color:#1A0F91"/>
			</linearGradient>
			<path style="fill:url(#SVGID_00000009576965843221784580000016471448328659905193_);" d="M2171.262,508.812
				c-52.517-36.536-98.182-35.812-130.327-26.326c-29.324,8.652-48.33,36.963-45.54,67.41l13.863,151.313l164.963,14.64
				C2174.221,715.849,2274.257,580.463,2171.262,508.812z M2098.718,630.884c-22.717,0-41.133-18.415-41.133-41.133
				s18.416-41.134,41.133-41.134c22.718,0,41.133,18.416,41.133,41.134S2121.435,630.884,2098.718,630.884z"/>
			<path style="fill:#91B3FA;" d="M2025.736,637.558c-2.035,0-3.77-1.551-3.959-3.619l-2.208-24.097
				c-0.202-2.189,1.411-4.125,3.6-4.327c2.233-0.209,4.128,1.411,4.327,3.604l2.208,24.097c0.202,2.189-1.411,4.124-3.6,4.327
				C2025.98,637.554,2025.857,637.558,2025.736,637.558z M2021.41,590.334c-2.035,0-3.77-1.551-3.959-3.619l-1.678-18.294
				c-2.659-29.004,15.592-56.009,43.393-64.215c19.689-5.812,39.975-6.643,60.29-2.476c2.153,0.439,3.542,2.546,3.1,4.7
				c-0.441,2.15-2.528,3.526-4.698,3.098c-19.03-3.895-38.016-3.122-56.44,2.313c-24.166,7.133-40.03,30.624-37.719,55.857
				l1.677,18.293c0.202,2.189-1.411,4.125-3.6,4.327C2021.653,590.33,2021.53,590.334,2021.41,590.334z"/>
			
				<linearGradient id="SVGID_00000075843400302300087630000013539180894634644867_" gradientUnits="userSpaceOnUse" x1="3218.9851" y1="-1242.9125" x2="2581.7876" y2="-107.9039">
				<stop  offset="0" style="stop-color:#09005D"/>
				<stop  offset="1" style="stop-color:#1A0F91"/>
			</linearGradient>
			<path style="fill:url(#SVGID_00000075843400302300087630000013539180894634644867_);" d="M1784.113,798.995V722.92
				c0-26.261,21.766-47.295,48.012-46.396l524.509,17.971c23.277,0.797,42.128,19.171,43.522,42.42l4.383,73.098L1784.113,798.995z"
				/>
			<path style="fill:#91B3FA;" d="M1979.689,705.189h-22.556c-2.198,0-3.981-1.78-3.981-3.98c0-2.201,1.782-3.981,3.981-3.981
				h22.556c2.198,0,3.981,1.78,3.981,3.981C1983.67,703.409,1981.888,705.189,1979.689,705.189z"/>
			<path style="fill:#91B3FA;" d="M1812.503,775.107c-2.198,0-3.98-1.78-3.98-3.981V740.35c0-23.779,19.345-43.122,43.124-43.122
				h82.928c2.198,0,3.981,1.78,3.981,3.981c0,2.2-1.782,3.98-3.981,3.98h-82.928c-19.388,0-35.163,15.775-35.163,35.161v30.776
				C1816.484,773.327,1814.701,775.107,1812.503,775.107z"/>
			<path style="fill:#7D97F4;" d="M1570.398,818.206c1.266-26.344,22.993-47.052,49.367-47.053l917.202-0.025
				c32.98-0.001,61.176,23.732,66.801,56.229l0.777,4.485c6.162,35.595-21.243,68.151-57.367,68.151h-940.995
				c-21.619,0-38.847-18.076-37.809-39.67L1570.398,818.206z"/>
			<g>
				
					<ellipse transform="matrix(0.7071 -0.7071 0.7071 0.7071 -371.2082 1633.2748)" style="fill:#91B3FA;" cx="1785.933" cy="1264.725" rx="237.961" ry="237.961"/>
				<path style="fill:#FFFFFF;" d="M1922.16,1198.973h-79.07v-68.112c0-15.989-12.962-28.951-28.952-28.951h-57.946
					c-15.99,0-28.951,12.962-28.951,28.951v68.112h-79.071c-15.99,0-28.951,12.962-28.951,28.952v67.339
					c0,15.99,12.962,28.951,28.951,28.951h79.071v68.112c0,15.989,12.962,28.952,28.951,28.952h57.946
					c15.99,0,28.952-12.962,28.952-28.952v-68.112h79.07c15.989,0,28.952-12.962,28.952-28.951v-67.339
					C1951.112,1211.935,1938.15,1198.973,1922.16,1198.973z"/>
			</g>
		</g>
		<g>
			
				<linearGradient id="SVGID_00000166674833185141979980000000810309264396252571_" gradientUnits="userSpaceOnUse" x1="-6371.7778" y1="1380.359" x2="-6259.6997" y2="1661.5043" gradientTransform="matrix(-1 0 0 1 -5328.8096 0)">
				<stop  offset="0" style="stop-color:#09005D"/>
				<stop  offset="1" style="stop-color:#1A0F91"/>
			</linearGradient>
			<path style="fill:url(#SVGID_00000166674833185141979980000000810309264396252571_);" d="M976.512,1531.592
				c0,0-37.784,18.379-44.731,39.491c-5.574,16.94-47.354,19.124-51.481,52.44c-2.13,17.201-14.859,30.977-31.992,33.603
				c-42.67,6.54-108.43,28.698-118.952,102.784c-8.031,56.548,20.797,77.991,51.051,85.412
				c22.221,5.451,36.987,27.065,32.493,49.499c-4.311,21.517,2.118,46.392,39.395,66.062
				c83.535,44.079,166.959-104.427,166.959-104.427l17.097-259.3L976.512,1531.592z"/>
			
				<linearGradient id="SVGID_00000178884867958793419900000009767198617594528671_" gradientUnits="userSpaceOnUse" x1="-6601.2515" y1="325.2094" x2="-6394.1968" y2="796.3051" gradientTransform="matrix(-0.9776 -0.2106 -0.2106 0.9776 -5078.3896 -113.5247)">
				<stop  offset="0" style="stop-color:#FEBBBA"/>
				<stop  offset="1" style="stop-color:#FF928E"/>
			</linearGradient>
			<path style="fill:url(#SVGID_00000178884867958793419900000009767198617594528671_);" d="M1431.054,1470.12
				c0,0-166.79,263.816-365.124,314.772c0,0,38.646,110.071,68.474,122.668c0,0,244.006-203.595,306.712-399.953L1431.054,1470.12z"
				/>
			
				<linearGradient id="SVGID_00000152950165106274728400000006623955424408492169_" gradientUnits="userSpaceOnUse" x1="-5962.0693" y1="3180.2786" x2="-5867.0313" y2="3180.2786" gradientTransform="matrix(-1 0 0 1 -5328.8096 0)">
				<stop  offset="0" style="stop-color:#09005D"/>
				<stop  offset="1" style="stop-color:#1A0F91"/>
			</linearGradient>
			<path style="fill:url(#SVGID_00000152950165106274728400000006623955424408492169_);" d="M633.146,3157.486l-5.406,44.439
				c-1.025,8.43-7.663,15.096-16.1,16.061c-14.246,1.627-37.108,3.295-59.475,0.93c-9.818-1.038-16.191-10.979-13.201-20.388
				c5.453-17.155,15.428-42.907,29.81-58.062h49.297C627.186,3140.466,634.247,3148.438,633.146,3157.486z"/>
			
				<linearGradient id="SVGID_00000036968805256536316000000002253029092998075571_" gradientUnits="userSpaceOnUse" x1="-6363.6523" y1="3555.0549" x2="-6226.8862" y2="1956.6" gradientTransform="matrix(-1 0 0 1 -5328.8096 0)">
				<stop  offset="0" style="stop-color:#FEBBBA"/>
				<stop  offset="1" style="stop-color:#FF928E"/>
			</linearGradient>
			<path style="fill:url(#SVGID_00000036968805256536316000000002253029092998075571_);" d="M1019.254,2636.912l8.32,48.945
				c0,0-27.863,282.236-32.82,395.13c-0.777,17.7,3.802,35.191,13.092,50.277l48.45,78.679l-123.136-72.661l-2.451-15.027
				l20.157-27.715l-26.403-316.175c-1.551-18.574,2.282-37.202,11.039-53.654l25.47-47.849L1019.254,2636.912z"/>
			
				<linearGradient id="SVGID_00000051346819171565935830000004924636539651698580_" gradientUnits="userSpaceOnUse" x1="-6403.606" y1="3162.9272" x2="-6249.8276" y2="3162.9272" gradientTransform="matrix(-1 0 0 1 -5328.8096 0)">
				<stop  offset="0" style="stop-color:#09005D"/>
				<stop  offset="1" style="stop-color:#1A0F91"/>
			</linearGradient>
			<path style="fill:url(#SVGID_00000051346819171565935830000004924636539651698580_);" d="M1064.406,3221.341h-39.296
				c-7.355,0-14.291-3.377-18.777-9.206c-12.25-15.917-37.63-46.972-49.767-47.783c-16.337-1.091-14.247,56.989-14.247,56.989
				h-9.158l-11.599-72.172c-2.919-18.159,6.112-36.147,22.418-44.655l0,0c0,0,3.735,27.619,23.985,39.835
				c20.25,12.217,82.404,55.966,82.404,55.966s7.613-1.085,15.971,0.425C1078.737,3202.98,1077.005,3221.341,1064.406,3221.341z"/>
			
				<linearGradient id="SVGID_00000170998167541311262360000014258198056732987534_" gradientUnits="userSpaceOnUse" x1="-6088.5391" y1="3578.8391" x2="-5951.7368" y2="1979.9639" gradientTransform="matrix(-1 0 0 1 -5328.8096 0)">
				<stop  offset="0" style="stop-color:#FEBBBA"/>
				<stop  offset="1" style="stop-color:#FF928E"/>
			</linearGradient>
			<path style="fill:url(#SVGID_00000170998167541311262360000014258198056732987534_);" d="M850.599,2660.159
				c0,0-163.234,309.639-189.182,380.334c-25.948,70.696-35.038,129.672-35.386,135.257c-0.544,8.727-11.398,17.097-41.317,17.097
				c-15.44,0-23.003-6.189-26.705-12.18c-3.159-5.111-3.322-11.507-0.66-16.894c9.442-19.109,39.407-80.178,50.505-107.875
				c13.25-33.07,41.752-182.937,57.383-235.044c15.631-52.107,33.299-108.63,101.369-160.694
				C766.605,2660.159,813.333,2614.392,850.599,2660.159z"/>
			
				<linearGradient id="SVGID_00000063629688401235628850000015720127720405070752_" gradientUnits="userSpaceOnUse" x1="2158.3977" y1="572.5613" x2="1342.0695" y2="1587.9923">
				<stop  offset="0" style="stop-color:#FF928E"/>
				<stop  offset="1" style="stop-color:#FE7062"/>
			</linearGradient>
			<path style="fill:url(#SVGID_00000063629688401235628850000015720127720405070752_);" d="M953.716,2152.799
				c42.107-178.424-64.563-279.339-64.563-279.339c67.307-64.606,189.938-94.005,189.938-94.005s117.017,85.551,103.136,152.512
				c-8.136,39.246-82.252,235.079-82.252,235.079S1031.441,2199.481,953.716,2152.799z"/>
			
				<linearGradient id="SVGID_00000162347987901893797590000003853473166949291944_" gradientUnits="userSpaceOnUse" x1="-2428.2261" y1="2053.6902" x2="-4239.2441" y2="3411.9539" gradientTransform="matrix(-1 0 0 1 -1980.2902 0)">
				<stop  offset="0" style="stop-color:#09005D"/>
				<stop  offset="1" style="stop-color:#1A0F91"/>
			</linearGradient>
			<path style="fill:url(#SVGID_00000162347987901893797590000003853473166949291944_);" d="M860.36,2241.132
				c17.136-51.624,93.357-88.333,93.357-88.333c77.725,46.682,146.259,14.248,146.259,14.248s15.37,58.748,4.761,113.343
				c-10.608,54.596-77.162,405.467-77.162,405.467c-104.867,21.248-266.152-21.378-266.152-21.378
				C828.219,2545.886,843.224,2292.756,860.36,2241.132z"/>
			
				<linearGradient id="SVGID_00000141434049496795697080000011321893984796997823_" gradientUnits="userSpaceOnUse" x1="-6378.6509" y1="1979.4572" x2="-6352.96" y2="1791.5073" gradientTransform="matrix(-1 0 0 1 -5328.8096 0)">
				<stop  offset="0" style="stop-color:#FEBBBA"/>
				<stop  offset="1" style="stop-color:#FF928E"/>
			</linearGradient>
			<path style="fill:url(#SVGID_00000141434049496795697080000011321893984796997823_);" d="M1002.592,1661.547l-34.234,153.772
				c-3.278,13.545,9.07,11.328,22.764,8.747c22.426-4.228,51.329-12.936,60.992-30.386c0.983-1.776,1.474-3.784,1.752-5.795
				l14.708-106.629c1.167-8.46-3.406-16.671-11.213-20.132l-28.381-12.584C1018.052,1643.693,1005.404,1649.929,1002.592,1661.547z"
				/>
			
				<linearGradient id="SVGID_00000011021381521954003020000008041959314969001861_" gradientUnits="userSpaceOnUse" x1="-6272.7651" y1="2071.0457" x2="-6102.1016" y2="2071.0457" gradientTransform="matrix(-1 0 0 1 -5328.8096 0)">
				<stop  offset="0" style="stop-color:#FEBBBA"/>
				<stop  offset="1" style="stop-color:#FF928E"/>
			</linearGradient>
			<path style="fill:url(#SVGID_00000011021381521954003020000008041959314969001861_);" d="M889.154,1873.46
				c0,0-238.936,170.946-30.558,350.575c0,0,7.945,8.989,23.577,13.661c7.891,2.359,31.235,20.02,43.07,29.229
				c3.804,2.96,9.302,1.953,11.86-2.134l0,0c2.004-3.202,2.24-7.204,0.625-10.619l-29.58-62.55
				c-8.215-7.667-20.788-8.21-29.635-1.282l0,0c-5.643,4.419-13.91,2.568-17.069-3.865c-16.108-32.808-46.524-129.298,77.969-238.33
				c4.68-4.099,5.864-10.878,2.992-16.396C933.658,1914.946,913.654,1881.578,889.154,1873.46z"/>
			<g>
				
					<linearGradient id="SVGID_00000132089545575231785160000010743564742447182208_" gradientUnits="userSpaceOnUse" x1="-6437.4204" y1="613.2742" x2="-6213.2549" y2="214.3348" gradientTransform="matrix(-0.9809 -0.1943 -0.1943 0.9809 -5099.7197 -99.2406)">
					<stop  offset="0" style="stop-color:#FEBBBA"/>
					<stop  offset="1" style="stop-color:#FF928E"/>
				</linearGradient>
				<path style="fill:url(#SVGID_00000132089545575231785160000010743564742447182208_);" d="M1068.164,1521.368
					c0,0,36.446,24.671,52.107,87.498c15.661,62.828-9.79,85.364-35.878,83.983c-26.088-1.381-63.914-9.449-96.687-54.521
					C954.932,1593.255,1020.404,1491.222,1068.164,1521.368z"/>
				
					<linearGradient id="SVGID_00000078008882202952464220000001004779078032229048_" gradientUnits="userSpaceOnUse" x1="-6389.2119" y1="265.8613" x2="-6277.1289" y2="547.0181" gradientTransform="matrix(-0.9809 -0.1943 -0.1943 0.9809 -5099.7197 -99.2406)">
					<stop  offset="0" style="stop-color:#09005D"/>
					<stop  offset="1" style="stop-color:#1A0F91"/>
				</linearGradient>
				<path style="fill:url(#SVGID_00000078008882202952464220000001004779078032229048_);" d="M1020.755,1612.987
					c0,0-13.354-90.026,61.391-76.255l15.114,15.734c0,0,36.585-41.201-3.901-72.346c-40.487-31.145-96.67-23.169-127.754,33.531
					c-31.083,56.7-42.364,96.542-16.311,131.775c26.053,35.233,45.651,5.015,45.651,5.015s-11.949-30.494-2.034-43.579
					c9.914-13.085,22.705,7.61,22.705,7.61L1020.755,1612.987z"/>
				
					<linearGradient id="SVGID_00000163040774613559222270000003968432271583501722_" gradientUnits="userSpaceOnUse" x1="-6389.7051" y1="640.0886" x2="-6165.54" y2="241.1501" gradientTransform="matrix(-0.9809 -0.1943 -0.1943 0.9809 -5099.7197 -99.2406)">
					<stop  offset="0" style="stop-color:#FEBBBA"/>
					<stop  offset="1" style="stop-color:#FF928E"/>
				</linearGradient>
				<path style="fill:url(#SVGID_00000163040774613559222270000003968432271583501722_);" d="M1010.54,1620.696
					c0,0-6.593-46.318-30.248-33.077c-23.655,13.241,8.525,43.267,21.428,53.484L1010.54,1620.696z"/>
			</g>
			<g>
				
					<linearGradient id="SVGID_00000177444874501471271640000010420098702893205437_" gradientUnits="userSpaceOnUse" x1="-6642.1689" y1="343.1939" x2="-6435.1147" y2="814.2891" gradientTransform="matrix(-0.9776 -0.2106 -0.2106 0.9776 -5078.3896 -113.5247)">
					<stop  offset="0" style="stop-color:#FEBBBA"/>
					<stop  offset="1" style="stop-color:#FF928E"/>
				</linearGradient>
				<path style="fill:url(#SVGID_00000177444874501471271640000010420098702893205437_);" d="M1429.909,1524.432
					c0.505,5.442-19.732,9.203-26.172-13.997c1.77-10.072,4.915-54.18,12.638-61.032c41.131-36.496,114.478-77.552,114.478-77.552
					c8.203,12.524-2.555,20.773-2.555,20.773l-36.613,24.709c3.819,12.649,9.393,23.833,10.023,38.275
					c0.478,10.936-3.563,21.644-10.822,29.939c-7.286,8.326-17.096,19.075-25.938,27.237
					C1448.21,1528.231,1429.909,1524.432,1429.909,1524.432z"/>
				
					<linearGradient id="SVGID_00000039108080405340508740000016576524965572470680_" gradientUnits="userSpaceOnUse" x1="5590.4902" y1="1469.3351" x2="5643.7324" y2="1469.3351" gradientTransform="matrix(1 0 0 1 -4163.3765 0)">
					<stop  offset="0" style="stop-color:#F9B776"/>
					<stop  offset="1" style="stop-color:#F47960"/>
				</linearGradient>
				<path style="fill:url(#SVGID_00000039108080405340508740000016576524965572470680_);" d="M1448.538,1505.928l-3.072-1.257
					c0.742-1.805,18.219-44.267,26.538-52.962c3.5-3.659,5.188-6.893,5.023-9.615c-0.117-1.85-1.099-3.613-3.001-5.37
					l-30.838,16.488l-13.274,20.795l-2.8-1.789l13.747-21.521l0.382-0.207l33.197-17.749l0.859,0.697
					c3.198,2.612,4.848,5.376,5.039,8.448c0.23,3.737-1.711,7.7-5.937,12.117C1466.51,1462.248,1448.716,1505.494,1448.538,1505.928
					z"/>
			</g>
		</g>
		<g>
			
				<rect x="2542.143" y="1997.511" transform="matrix(-1 -1.224647e-16 1.224647e-16 -1 5583.1636 4126.3667)" style="fill:#91B3FA;" width="498.877" height="131.345"/>
			<path style="fill:#91B3FA;" d="M2387.888,3178.369h807.388c19.972,0,36.162-16.19,36.162-36.162V2107.575
				c0-19.972-16.19-36.162-36.162-36.162h-807.388c-19.972,0-36.162,16.19-36.162,36.162v1034.632
				C2351.726,3162.179,2367.916,3178.369,2387.888,3178.369z"/>
			<path style="opacity:0.28;fill:#FFFFFF;" d="M2475.074,3005.577h633.015c6.628,0,12.001-5.373,12.001-12.001v-679.981
				c0-6.628-5.373-12.001-12.001-12.001h-633.015c-6.628,0-12.001,5.373-12.001,12.001v679.981
				C2463.073,3000.204,2468.447,3005.577,2475.074,3005.577z"/>
			
				<linearGradient id="SVGID_00000052791965251063440040000005843148045416494988_" gradientUnits="userSpaceOnUse" x1="-3512.0032" y1="1479.4587" x2="-3998.9287" y2="2767.1045" gradientTransform="matrix(-1 0 0 1 -894.1343 0)">
				<stop  offset="0" style="stop-color:#4F52FF"/>
				<stop  offset="1" style="stop-color:#4042E2"/>
			</linearGradient>
			<path style="fill:url(#SVGID_00000052791965251063440040000005843148045416494988_);" d="M2465.919,2039.729h651.324
				c3.5,0,6.337-2.837,6.337-6.337v-188.084c0-6.615-5.363-11.979-11.979-11.979h-640.041c-6.616,0-11.979,5.363-11.979,11.979
				v188.084C2459.583,2036.892,2462.42,2039.729,2465.919,2039.729z"/>
			<g>
				
					<rect x="3049.419" y="1862.787" transform="matrix(-1 -1.224647e-16 1.224647e-16 -1 6122.6797 3875.4043)" style="opacity:0.6;fill:#91B3FA;" width="23.842" height="149.83"/>
				
					<rect x="3000.372" y="1862.787" transform="matrix(-1 -1.224647e-16 1.224647e-16 -1 6024.5864 3875.4043)" style="opacity:0.6;fill:#91B3FA;" width="23.842" height="149.83"/>
				
					<rect x="2951.325" y="1862.787" transform="matrix(-1 -1.224647e-16 1.224647e-16 -1 5926.4922 3875.4043)" style="opacity:0.6;fill:#91B3FA;" width="23.842" height="149.83"/>
				
					<rect x="2902.278" y="1862.787" transform="matrix(-1 -1.224647e-16 1.224647e-16 -1 5828.3984 3875.4043)" style="opacity:0.6;fill:#91B3FA;" width="23.843" height="149.83"/>
				
					<rect x="2853.231" y="1862.787" transform="matrix(-1 -1.224647e-16 1.224647e-16 -1 5730.3047 3875.4043)" style="opacity:0.6;fill:#91B3FA;" width="23.842" height="149.83"/>
				
					<rect x="2804.184" y="1862.787" transform="matrix(-1 -1.224647e-16 1.224647e-16 -1 5632.2109 3875.4043)" style="opacity:0.6;fill:#91B3FA;" width="23.843" height="149.83"/>
				
					<rect x="2755.137" y="1862.787" transform="matrix(-1 -1.224647e-16 1.224647e-16 -1 5534.1167 3875.4043)" style="opacity:0.6;fill:#91B3FA;" width="23.842" height="149.83"/>
				
					<rect x="2706.09" y="1862.787" transform="matrix(-1 -1.224647e-16 1.224647e-16 -1 5436.0225 3875.4043)" style="opacity:0.6;fill:#91B3FA;" width="23.842" height="149.83"/>
				
					<rect x="2657.043" y="1862.787" transform="matrix(-1 -1.224647e-16 1.224647e-16 -1 5337.9292 3875.4043)" style="opacity:0.6;fill:#91B3FA;" width="23.842" height="149.83"/>
				
					<rect x="2607.996" y="1862.787" transform="matrix(-1 -1.224647e-16 1.224647e-16 -1 5239.835 3875.4043)" style="opacity:0.6;fill:#91B3FA;" width="23.842" height="149.83"/>
				
					<rect x="2558.95" y="1862.787" transform="matrix(-1 -1.224647e-16 1.224647e-16 -1 5141.7417 3875.4043)" style="opacity:0.6;fill:#91B3FA;" width="23.842" height="149.83"/>
				
					<rect x="2509.903" y="1862.787" transform="matrix(-1 -1.224647e-16 1.224647e-16 -1 5043.6475 3875.4043)" style="opacity:0.6;fill:#91B3FA;" width="23.842" height="149.83"/>
			</g>
		</g>
		<g>
			
				<linearGradient id="SVGID_00000173125512494202999040000004660217066128144524_" gradientUnits="userSpaceOnUse" x1="2583.5676" y1="2052.1785" x2="1757.203" y2="4093.2043">
				<stop  offset="0" style="stop-color:#FF928E"/>
				<stop  offset="1" style="stop-color:#FE7062"/>
			</linearGradient>
			<path style="fill:url(#SVGID_00000173125512494202999040000004660217066128144524_);" d="M2169.707,3203.324
				c96.807,21.572,274.699,19.614,376.829-4.85c33.526-8.031,57.118-38.072,57.118-72.546V2086.717h-494.791v1040.48
				C2108.863,3163.676,2134.1,3195.39,2169.707,3203.324z"/>
			
				<linearGradient id="SVGID_00000059294601610735987210000006564903260014555830_" gradientUnits="userSpaceOnUse" x1="-3220.5728" y1="1238.0356" x2="-3276.9236" y2="2893.3772" gradientTransform="matrix(-1 0 0 1 -894.1343 0)">
				<stop  offset="0" style="stop-color:#E1473D"/>
				<stop  offset="1" style="stop-color:#E9605A"/>
			</linearGradient>
			<path style="fill:url(#SVGID_00000059294601610735987210000006564903260014555830_);" d="M2096.949,2195.542h518.429
				c3.5,0,6.337-2.837,6.337-6.337v-155.836c0-6.616-5.363-11.979-11.979-11.979h-507.146c-6.616,0-11.979,5.363-11.979,11.979
				v155.836C2090.612,2192.705,2093.449,2195.542,2096.949,2195.542z"/>
			<g>
				
					<rect x="2562.396" y="2046.246" transform="matrix(-1 -1.224647e-16 1.224647e-16 -1 5143.8628 4218.9126)" style="opacity:0.6;fill:#FFFFFF;" width="19.07" height="126.42"/>
				
					<rect x="2523.166" y="2046.246" transform="matrix(-1 -1.224647e-16 1.224647e-16 -1 5065.4023 4218.9126)" style="opacity:0.6;fill:#FFFFFF;" width="19.07" height="126.42"/>
				
					<rect x="2483.935" y="2046.246" transform="matrix(-1 -1.224647e-16 1.224647e-16 -1 4986.9409 4218.9126)" style="opacity:0.6;fill:#FFFFFF;" width="19.07" height="126.42"/>
				
					<rect x="2444.705" y="2046.246" transform="matrix(-1 -1.224647e-16 1.224647e-16 -1 4908.48 4218.9126)" style="opacity:0.6;fill:#FFFFFF;" width="19.071" height="126.42"/>
				
					<rect x="2405.474" y="2046.246" transform="matrix(-1 -1.224647e-16 1.224647e-16 -1 4830.019 4218.9126)" style="opacity:0.6;fill:#FFFFFF;" width="19.07" height="126.42"/>
				
					<rect x="2366.244" y="2046.246" transform="matrix(-1 -1.224647e-16 1.224647e-16 -1 4751.5581 4218.9126)" style="opacity:0.6;fill:#FFFFFF;" width="19.071" height="126.42"/>
				
					<rect x="2327.013" y="2046.246" transform="matrix(-1 -1.224647e-16 1.224647e-16 -1 4673.0972 4218.9126)" style="opacity:0.6;fill:#FFFFFF;" width="19.07" height="126.42"/>
				
					<rect x="2287.783" y="2046.246" transform="matrix(-1 -1.224647e-16 1.224647e-16 -1 4594.6357 4218.9126)" style="opacity:0.6;fill:#FFFFFF;" width="19.07" height="126.42"/>
				
					<rect x="2248.552" y="2046.246" transform="matrix(-1 -1.224647e-16 1.224647e-16 -1 4516.1753 4218.9126)" style="opacity:0.6;fill:#FFFFFF;" width="19.07" height="126.42"/>
				
					<rect x="2209.322" y="2046.246" transform="matrix(-1 -1.224647e-16 1.224647e-16 -1 4437.7139 4218.9126)" style="opacity:0.6;fill:#FFFFFF;" width="19.07" height="126.42"/>
				
					<rect x="2170.092" y="2046.246" transform="matrix(-1 -1.224647e-16 1.224647e-16 -1 4359.2534 4218.9126)" style="opacity:0.6;fill:#FFFFFF;" width="19.07" height="126.42"/>
				
					<rect x="2130.861" y="2046.246" transform="matrix(-1 -1.224647e-16 1.224647e-16 -1 4280.792 4218.9126)" style="opacity:0.6;fill:#FFFFFF;" width="19.07" height="126.42"/>
			</g>
			<path style="opacity:0.39;fill:#FFFFFF;" d="M2220.043,2962.74h281.777c17.055,0,30.881-13.826,30.881-30.881v-540
				c0-17.055-13.826-30.881-30.881-30.881h-281.777c-17.055,0-30.881,13.826-30.881,30.881v540
				C2189.162,2948.914,2202.988,2962.74,2220.043,2962.74z"/>
		</g>
		<g>
			<path style="fill:#FFFFFF;" d="M1754.127,2794.957l285.58,33.071c-59.248,110.45-84.841,232.939-82.685,357.783l-244.873-28.356
				c-99.686-11.544-171.804-102.55-160.26-202.237l0,0C1563.434,2855.529,1654.441,2783.413,1754.127,2794.957z"/>
			
				<linearGradient id="SVGID_00000063602381138662651490000011777315457481907381_" gradientUnits="userSpaceOnUse" x1="-2935.835" y1="2602.52" x2="-2156.4468" y2="3359.8916" gradientTransform="matrix(-0.9934 -0.115 -0.115 0.9934 -91.1437 -166.0894)">
				<stop  offset="0" style="stop-color:#4F52FF"/>
				<stop  offset="1" style="stop-color:#4042E2"/>
			</linearGradient>
			<path style="fill:url(#SVGID_00000063602381138662651490000011777315457481907381_);" d="M2039.708,2828.027l238.391,27.606
				c99.686,11.544,171.804,102.55,160.26,202.237l0,0c-11.544,99.687-102.551,171.803-202.237,160.26l-279.099-32.32
				C1954.867,3060.967,1980.46,2938.478,2039.708,2828.027z"/>
		</g>
	</g>
</g>
</svg>
